<?xml version="1.0" standalone="no"?><!DOCTYPE svg PUBLIC "-//W3C//DTD SVG 1.1//EN" "http://www.w3.org/Graphics/SVG/1.1/DTD/svg11.dtd"><svg t="1744388948969" class="icon" viewBox="0 0 1024 1024" version="1.1" xmlns="http://www.w3.org/2000/svg" p-id="10911" xmlns:xlink="http://www.w3.org/1999/xlink" width="200" height="200"><path d="M921.998 142.375H102.652c-18.982 0-34.475 15.288-34.475 34.271v588.847c0 18.78 15.493 34.495 34.475 34.495H477.85v37.316l0.651 3.492H288.606c-11.349 0-20.507 8.729-20.507 20.303 0 11.35 9.158 20.526 20.507 20.526h446.991c11.349 0 20.077-9.177 20.077-20.526 0-11.573-8.729-20.303-20.077-20.303H545.722l0.429-3.492v-37.316h375.848c18.556 0 33.825-15.715 33.825-34.495V176.646c-0.001-18.983-15.27-34.271-33.826-34.271zM887.5 731.465H136.274V210.248H887.5v521.217z" fill="#707070" p-id="10912"></path><path d="M826.392 310.953c19.001 0 34.048-14.84 34.048-34.271 0-18.537-15.047-33.825-34.048-33.825-18.984 0-34.254 15.288-34.254 33.825 0 19.431 15.269 34.271 34.254 34.271zM311.258 619.704l0.535 0.271c11.637 6.686 24.408 8.29 35.916 5.215l0.6-0.135c11.772-3.076 22.475-10.702 29.096-22.204 6.557-11.772 7.897-24.75 4.751-36.522l-1.006-3.346 80.266-79.994c9.032 3.21 19 3.475 27.896 0.934l3.275-0.934 30.301 29.83c-3.275 9.367-3.547 19.398-1.206 28.225 3.282 11.908 10.974 22.609 22.274 28.767 11.572 6.686 24.35 8.291 35.922 5.351l0.6-0.271c11.709-3.075 22.41-10.702 28.762-22.203v-0.406c6.891-11.237 8.025-23.944 5.086-35.981l-1.07-3.48 71.098-71.169c9.232 3.346 19 3.481 28.025 1.206 11.908-3.076 22.41-10.703 28.967-22.34l0.135-0.271c6.551-11.102 7.893-24.344 4.945-36.116a49.26 49.26 0 0 0-22.404-29.031c-11.643-6.557-24.686-7.891-36.387-4.552-11.572 3.21-22.273 10.973-28.83 22.075v0.135c-6.82 11.373-7.963 24.479-5.016 36.387l1.205 3.21-71.24 70.898c-9.225-2.939-18.729-3.211-27.625-0.935l-0.465 0.271-3.41 0.664-29.965-29.83c3.275-9.232 3.545-19.129 0.87-28.09-3.081-11.908-10.638-22.61-22.275-29.167-11.237-6.557-24.614-8.026-36.187-4.545-11.908 2.939-22.545 10.702-29.231 22.339-6.356 11.373-7.891 24.08-4.616 36.251l0.935 3.211-80.194 80.13a46.27 46.27 0 0 0-27.561-1.07l-0.335 0.136c-11.901 3.075-22.539 10.701-29.096 22.21-6.821 11.366-8.026 24.479-5.016 36.251 3.275 11.773 10.502 21.805 21.675 28.625z m369.948-235.236l0.807-1.47c3.074-5.222 7.955-8.562 13.441-9.903 5.352-1.605 11.301-1.07 16.652 1.741l1.205 0.671c5.018 3.075 8.633 8.026 10.104 13.506 1.471 5.486 0.871 11.237-1.805 16.859l-0.871 0.935c-3.01 4.951-8.027 8.562-13.377 10.167-5.352 1.469-11.438 0.805-16.588-2.006l-1.342-0.535c-4.945-3.075-8.49-8.162-10.096-13.648-1.341-5.215-0.94-11.365 1.87-16.317zM548.505 520.503l0.734-1.47c3.076-5.216 7.963-8.562 13.514-10.031h0.264c5.623-1.342 11.709-0.941 16.924 2.141l0.605 0.398c5.018 3.076 8.627 8.162 10.098 13.643 1.605 5.757 0.869 11.644-2.205 17.123-3.146 5.223-8.162 9.367-13.85 10.702h-0.398c-5.217 1.341-11.174 0.941-16.254-1.869l-1.27-0.806c-4.887-3.076-8.498-8.027-9.967-13.507-1.471-5.351-1.006-11.108 1.805-16.324z m-89.901-92.569c3.146-5.486 8.297-9.231 13.777-10.566 5.822-1.341 12.043-0.806 17.258 2.54 5.487 2.939 9.368 7.756 10.638 13.513 1.67 5.751 0.935 12.036-2.211 17.253-2.94 5.486-8.156 9.096-13.642 10.701-5.751 1.477-12.172 0.941-17.523-2.141-5.287-3.21-9.032-8.561-10.638-14.041-1.54-5.621-0.934-11.773 2.341-17.259zM314.94 567.868c3.011-5.622 8.026-9.232 13.642-10.702h0.606c5.351-1.741 11.437-0.936 16.917 2.141 5.222 2.939 9.032 8.162 10.702 13.912 1.476 5.887 0.87 12.037-2.34 17.259-3.14 5.479-8.362 9.361-13.977 10.702h-0.335c-5.615 1.334-11.572 0.664-17.059-2.547l-0.264-0.129c-5.215-3.081-8.761-8.026-10.231-13.513-1.477-5.622-0.942-12.043 2.339-17.123z" fill="#707070" p-id="10913"></path><path d="M239.627 672.671h545.109c7.408 0 13.504-4.731 13.504-10.614 0-6.116-6.096-11.077-13.504-11.077H253.202V288.226c0-6-6.171-10.732-13.574-10.732-7.696 0-13.868 4.732-13.868 10.732v373.831c-0.001 5.882 6.171 10.614 13.867 10.614z" fill="#707070" p-id="10914"></path></svg>