<?xml version="1.0" standalone="no"?><!DOCTYPE svg PUBLIC "-//W3C//DTD SVG 1.1//EN" "http://www.w3.org/Graphics/SVG/1.1/DTD/svg11.dtd"><svg t="1744388819844" class="icon" viewBox="0 0 1024 1024" version="1.1" xmlns="http://www.w3.org/2000/svg" p-id="5465" xmlns:xlink="http://www.w3.org/1999/xlink" width="200" height="200"><path d="M507.392 128.768c-105.472 0-191.232 85.76-191.232 191.232 0 105.472 85.76 191.232 191.232 191.232S698.624 425.472 698.624 320c0-105.472-85.76-191.232-191.232-191.232z m0 356.608c-91.264 0-165.376-74.24-165.376-165.376 0-2.176 0.128-4.352 0.128-6.528 25.216-11.008 84.224-28.416 153.344 6.528 71.936 36.48 147.456 16 177.152 5.248-2.816 88.832-75.776 160.128-165.248 160.128z" fill="#515151" p-id="5466"></path><path d="M426.496 377.216m-23.168 0a23.168 23.168 0 1 0 46.336 0 23.168 23.168 0 1 0-46.336 0Z" fill="#515151" p-id="5467"></path><path d="M588.416 377.216m-23.168 0a23.168 23.168 0 1 0 46.336 0 23.168 23.168 0 1 0-46.336 0Z" fill="#515151" p-id="5468"></path><path d="M841.472 669.44H798.72v0.64a55.2576 55.2576 0 0 0-47.744 54.784c0 28.032 20.736 51.072 47.744 54.784v0.64h42.752c9.984 0 18.176-8.192 18.176-18.176v-74.368c0-10.112-8.064-18.304-18.176-18.304z m-7.68 84.864h-29.184l-2.432-0.384a29.7088 29.7088 0 0 1-25.472-29.184c0-14.592 10.88-27.136 25.472-29.184l2.432-0.384h29.184v59.136z" fill="#515151" p-id="5469"></path><path d="M794.368 791.168c-32.128-4.48-56.832-31.872-56.832-65.152s24.704-60.8 56.832-65.152v-0.64h29.952l20.224-106.88c2.176-13.952-4.224-26.112-15.488-28.16-60.032-10.88-121.984-14.72-184.448-11.648-27.008 24.576-57.728 41.856-90.624 49.664-11.264 4.224-22.912 7.04-35.072 8.064l-1.92 327.296c82.944-22.016 169.856-23.68 250.496-4.736 9.6 2.304 20.352-5.376 21.888-15.744l13.824-86.144h-8.96v-0.768z" fill="#515151" p-id="5470"></path><path d="M219.264 779.52a55.2576 55.2576 0 0 0 47.744-54.784c0-28.032-20.736-51.072-47.744-54.784v-0.512h-42.752c-9.984 0-18.176 8.192-18.176 18.176v74.368c0 9.984 8.192 18.176 18.176 18.176h42.752v-0.64z m-6.016-25.216h-29.184v-59.008h29.184l2.432 0.384c14.464 2.048 25.472 14.592 25.472 29.184s-10.88 27.136-25.472 29.184l-2.432 0.256z" fill="#515151" p-id="5471"></path><path d="M464 563.072c-32.896-7.808-63.616-25.088-90.624-49.664-62.464-3.072-124.416 0.768-184.448 11.648-11.136 2.048-17.664 14.208-15.488 28.16l20.224 106.88h29.952v0.64c32.128 4.48 56.832 31.872 56.832 65.152s-24.704 60.8-56.832 65.152v0.64h-8.96l13.824 86.144c1.664 10.368 12.288 17.92 21.888 15.744 80.64-18.944 167.68-17.28 250.496 4.736l-1.92-327.424c-12.032-0.768-23.68-3.584-34.944-7.808z" fill="#515151" p-id="5472"></path></svg>